# Blender 4.2.3 LTS
# www.blender.org
mtllib box_01.mtl
o Cube
v -50.069530 -13.844143 50.371098
v -50.069530 86.155853 50.371098
v -50.069530 -13.844143 -49.628902
v -50.069530 86.155853 -49.628902
v 49.930470 -13.844143 50.371098
v 49.930470 86.155853 50.371098
v 49.930470 -13.844143 -49.628902
v 49.930470 86.155853 -49.628902
vn -1.0000 -0.0000 -0.0000
vn -0.0000 -0.0000 -1.0000
vn 1.0000 -0.0000 -0.0000
vn -0.0000 -0.0000 1.0000
vn -0.0000 -1.0000 -0.0000
vn -0.0000 1.0000 -0.0000
vt 0.997096 0.993770
vt 0.004292 0.014696
vt 0.994637 0.012214
vt 0.992870 0.999023
vt 0.003967 -0.003181
vt 0.996847 0.000774
vt 0.997684 0.996965
vt 0.003430 0.003688
vt 0.997684 0.003688
vt 0.998182 0.992174
vt 0.005755 0.009447
vt 0.996168 0.007421
vt 0.997530 0.006702
vt 0.003601 0.999401
vt 0.003601 0.006702
vt 0.002785 0.997994
vt 0.996715 0.006526
vt 0.996714 0.997994
vt 0.006751 0.996251
vt -0.000010 0.995067
vt 0.003430 0.996965
vt 0.007769 0.994199
vt 0.997530 0.999401
vt 0.002786 0.006526
s 0
usemtl textures/prometheus_custom/box_01
f 2/1/1 3/2/1 1/3/1
f 4/4/2 7/5/2 3/6/2
f 8/7/3 5/8/3 7/9/3
f 6/10/4 1/11/4 5/12/4
f 7/13/5 1/14/5 3/15/5
f 4/16/6 6/17/6 8/18/6
f 2/1/1 4/19/1 3/2/1
f 4/4/2 8/20/2 7/5/2
f 8/7/3 6/21/3 5/8/3
f 6/10/4 2/22/4 1/11/4
f 7/13/5 5/23/5 1/14/5
f 4/16/6 2/24/6 6/17/6
