o rocks_sun_gradient_skybox
# Generated by Q3Map2 (ydnar) -convert -format obj
mtllib rocks_sun_gradient_skybox.mtl
g mat2model0surf1
# SURFACETYPE MST_TRIANGLE_SOUP
usemtl textures/prometheus_custom/sfx_sun_01
# vertex 1
v -27.000000 -91.000000 598.000000
vn -0.569003 -0.663495 -0.485809
vt 0.000000 0.000000
# vertex 2
v 287.000000 -93.000000 240.000000
vn -0.564078 -0.667085 -0.486635
vt 0.500000 0.000000
# vertex 3
v 47.000000 270.500000 21.000000
vn -0.566015 -0.665473 -0.486593
vt 0.500000 0.500000
# vertex 4
v -267.000000 277.000000 380.000000
vn -0.570275 -0.664351 -0.483139
vt 0.000000 0.500000
# vertex 5
v 605.000000 -99.000000 -114.000000
vn -0.559091 -0.670614 -0.487539
vt 1.000000 0.000000
# vertex 6
v -507.000000 645.000000 158.000000
vn -0.571497 -0.665203 -0.480515
vt 0.000000 1.000000
# vertex 7
v -193.000000 637.000000 -200.000000
vn -0.567970 -0.663856 -0.486523
vt 0.500000 1.000000
# vertex 8
v 125.000000 629.000000 -554.000000
vn -0.564410 -0.662513 -0.492461
vt 1.000000 1.000000
# vertex 9
v 365.000000 263.000000 -336.000000
vn -0.561759 -0.666573 -0.490007
vt 1.000000 0.500000
f 1/1/1 3/3/3 2/2/2
f 1/1/1 4/4/4 3/3/3
f 3/3/3 4/4/4 6/6/6
f 2/2/2 3/3/3 5/5/5
f 3/3/3 6/6/6 7/7/7
f 3/3/3 7/7/7 8/8/8
f 3/3/3 8/8/8 9/9/9
f 3/3/3 9/9/9 5/5/5
