o rocks_misc_01
# Generated by Q3Map2 (ydnar) -convert -format obj
mtllib rocks_misc_01.mtl
g mat0model0surf0
# SURFACETYPE MST_PLANAR
usemtl textures/prometheus_custom/rocks_01
# vertex 1
v -58.875000 -25.375000 26.625000
vn -0.591605 -0.462471 0.660397
vt 0.796198 0.037819
# vertex 2
v -74.250000 9.500000 37.250000
vn -0.591605 -0.462471 0.660397
vt 0.762117 0.345052
# vertex 3
v -33.750000 -60.625000 24.375000
vn -0.591605 -0.462471 0.660397
vt 0.930672 -0.272978
# vertex 4
v -29.375000 -25.500000 52.875000
vn -0.591605 -0.462471 0.660397
vt 1.104697 0.036477
# vertex 5
v -26.875000 -34.500000 48.875000
vn -0.591605 -0.462471 0.660397
vt 1.098393 -0.042656
f 1/1/1 3/3/3 2/2/2
f 3/3/3 4/4/4 2/2/2
f 3/3/3 5/5/5 4/4/4
g mat0model0surf1
# SURFACETYPE MST_PLANAR
# vertex 6
v -54.250000 -35.750000 -19.125000
vn -0.915086 -0.403258 0.000000
vt -0.149414 -0.084669
# vertex 7
v -74.250000 9.500000 37.250000
vn -0.915086 -0.403258 0.000000
vt 0.291016 0.301838
# vertex 8
v -58.875000 -25.375000 26.625000
vn -0.915086 -0.403258 0.000000
vt 0.208008 0.004074
# vertex 9
v -77.375000 16.625000 37.125000
vn -0.915086 -0.403258 0.000000
vt 0.290039 0.362620
# vertex 10
v -61.500000 -19.375000 -26.875000
vn -0.915086 -0.403258 0.000000
vt -0.209961 0.055239
# vertex 11
v -77.625000 17.250000 18.125000
vn -0.915086 -0.403258 0.000000
vt 0.141602 0.367876
# vertex 12
v -76.000000 13.625000 3.250000
vn -0.915086 -0.403258 0.000000
vt 0.025391 0.336841
f 6/6/6 8/8/8 7/7/7
f 6/6/6 7/7/7 9/9/9
f 10/10/10 6/6/6 9/9/9
f 10/10/10 9/9/9 11/11/11
f 12/12/12 10/10/10 11/11/11
g mat0model0surf2
# SURFACETYPE MST_PLANAR
# vertex 13
v -54.250000 -35.750000 -19.125000
vn -0.812815 -0.580303 0.050801
vt -0.175561 1.012602
# vertex 14
v -58.875000 -25.375000 26.625000
vn -0.812815 -0.580303 0.050801
vt 0.178911 1.112478
# vertex 15
v -27.625000 -72.625000 -13.625000
vn -0.812815 -0.580303 0.050801
vt -0.119701 0.659067
# vertex 16
v -33.750000 -60.625000 24.375000
vn -0.812815 -0.580303 0.050801
vt 0.173611 0.773878
# vertex 17
v -12.875000 -91.875000 2.500000
vn -0.812815 -0.580303 0.050801
vt 0.013219 0.474408
f 13/13/13 15/15/15 14/14/14
f 15/15/15 16/16/16 14/14/14
f 15/15/15 17/17/17 16/16/16
g mat0model0surf3
# SURFACETYPE MST_PLANAR
# vertex 18
v -12.875000 -91.875000 2.500000
vn -0.191198 -0.643832 0.740894
vt 0.907485 0.479141
# vertex 19
v -33.750000 -60.625000 24.375000
vn -0.191198 -0.643832 0.740894
vt 0.792277 0.798726
# vertex 20
v 20.875000 -100.250000 4.000000
vn -0.191198 -0.643832 0.740894
vt 1.165721 0.393963
# vertex 21
v -26.875000 -34.500000 48.875000
vn -0.191198 -0.643832 0.740894
vt 0.892112 1.065581
# vertex 22
v -4.125000 -33.375000 55.625000
vn -0.191198 -0.643832 0.740894
vt 1.077385 1.076588
f 18/18/18 20/20/20 19/19/19
f 20/20/20 21/21/21 19/19/19
f 20/20/20 22/22/22 21/21/21
g mat0model0surf4
# SURFACETYPE MST_PLANAR
# vertex 23
v -74.250000 9.500000 37.250000
vn -0.451644 -0.188123 0.872140
vt 0.618719 0.171691
# vertex 24
v -77.375000 16.625000 37.125000
vn -0.451644 -0.188123 0.872140
vt 0.596590 0.228310
# vertex 25
v -29.375000 -25.500000 52.875000
vn -0.451644 -0.188123 0.872140
vt 0.986172 -0.106802
# vertex 26
v -60.125000 31.250000 49.125000
vn -0.451644 -0.188123 0.872140
vt 0.759372 0.344530
# vertex 27
v -24.000000 -21.375000 56.500000
vn -0.451644 -0.188123 0.872140
vt 1.036484 -0.074052
# vertex 28
v -14.875000 13.375000 68.750000
vn -0.451644 -0.188123 0.872140
vt 1.143797 0.202405
f 23/23/23 25/25/25 24/24/24
f 25/25/25 26/26/26 24/24/24
f 25/25/25 27/27/27 26/26/26
f 27/27/27 28/28/28 26/26/26
g mat0model0surf5
# SURFACETYPE MST_PLANAR
# vertex 29
v -77.375000 16.625000 37.125000
vn -0.657464 0.752855 0.030819
vt 0.261416 0.620667
# vertex 30
v -77.625000 17.250000 18.125000
vn -0.657464 0.752855 0.030819
vt 0.113050 0.627644
# vertex 31
v -60.125000 31.250000 49.125000
vn -0.657464 0.752855 0.030819
vt 0.361374 0.793913
# vertex 32
v -38.750000 52.375000 -10.375000
vn -0.657464 0.752855 0.030819
vt -0.095141 1.044509
# vertex 33
v -34.625000 54.000000 34.625000
vn -0.657464 0.752855 0.030819
vt 0.257545 1.064707
# vertex 34
v -36.000000 54.625000 -5.375000
vn -0.657464 0.752855 0.030819
vt -0.055115 1.070858
f 29/29/29 31/31/31 30/30/30
f 31/31/31 32/32/32 30/30/30
f 31/31/31 33/33/33 32/32/32
f 33/33/33 34/34/34 32/32/32
g mat0model0surf6
# SURFACETYPE MST_PLANAR
# vertex 35
v -16.875000 8.125000 -96.250000
vn -0.144602 -0.698586 -0.700762
vt -0.022848 1.578497
# vertex 36
v -27.625000 -72.625000 -13.625000
vn -0.144602 -0.698586 -0.700762
vt 0.189856 0.697319
# vertex 37
v -12.875000 -91.875000 2.500000
vn -0.144602 -0.698586 -0.700762
vt 0.102458 0.487252
# vertex 38
v -26.000000 -3.250000 -83.125000
vn -0.144602 -0.698586 -0.700762
vt 0.067693 1.454820
# vertex 39
v -13.875000 7.500000 -96.250000
vn -0.144602 -0.698586 -0.700762
vt -0.045802 1.571694
# vertex 40
v 20.875000 -100.250000 4.000000
vn -0.144602 -0.698586 -0.700762
vt -0.153406 0.395193
# vertex 41
v -0.250000 -0.125000 -91.625000
vn -0.144602 -0.698586 -0.700762
vt -0.142748 1.489321
# vertex 42
v 25.250000 -100.375000 3.125000
vn -0.144602 -0.698586 -0.700762
vt -0.188261 0.394346
f 35/35/35 39/39/39 37/37/37
f 35/35/35 37/37/37 36/36/36
f 37/37/37 39/39/39 40/40/40
f 39/39/39 41/41/41 40/40/40
f 35/35/35 36/36/36 38/38/38
f 40/40/40 41/41/41 42/42/42
g mat0model0surf7
# SURFACETYPE MST_PLANAR
# vertex 43
v -38.750000 52.375000 -10.375000
vn -0.739702 0.632263 -0.230399
vt 0.012641 1.119025
# vertex 44
v -77.625000 17.250000 18.125000
vn -0.739702 0.632263 -0.230399
vt 0.315542 0.764949
# vertex 45
v -36.375000 51.125000 -21.500000
vn -0.739702 0.632263 -0.230399
vt -0.075859 1.106318
# vertex 46
v -76.000000 13.625000 3.250000
vn -0.739702 0.632263 -0.230399
vt 0.200813 0.728821
# vertex 47
v -42.875000 33.625000 -48.625000
vn -0.739702 0.632263 -0.230399
vt -0.263084 0.929895
f 43/43/43 45/45/45 44/44/44
f 45/45/45 46/46/46 44/44/44
f 45/45/45 47/47/47 46/46/46
g mat0model0surf8
# SURFACETYPE MST_PLANAR
# vertex 48
v -26.000000 -3.250000 -83.125000
vn -0.633146 -0.540563 -0.554002
vt 0.645025 1.292441
# vertex 49
v -61.500000 -19.375000 -26.875000
vn -0.633146 -0.540563 -0.554002
vt 1.158379 1.142854
# vertex 50
v -27.625000 -72.625000 -13.625000
vn -0.633146 -0.540563 -0.554002
vt 1.062010 0.648348
# vertex 51
v -54.250000 -35.750000 -19.125000
vn -0.633146 -0.540563 -0.554002
vt 1.166647 0.990632
f 48/48/48 50/50/50 49/49/49
f 50/50/50 51/51/51 49/49/49
g mat0model0surf9
# SURFACETYPE MST_PLANAR
# vertex 52
v -26.875000 -34.500000 48.875000
vn -0.235485 -0.454931 0.858828
vt -0.101517 -0.047241
# vertex 53
v -29.375000 -25.500000 52.875000
vn -0.235485 -0.454931 0.858828
vt -0.112089 0.031434
# vertex 54
v -4.125000 -33.375000 55.625000
vn -0.235485 -0.454931 0.858828
vt 0.083835 -0.037659
# vertex 55
v -24.000000 -21.375000 56.500000
vn -0.235485 -0.454931 0.858828
vt -0.064103 0.067506
# vertex 56
v -1.125000 -26.375000 60.125000
vn -0.235485 -0.454931 0.858828
vt 0.115735 0.023647
f 52/52/52 54/54/54 53/53/53
f 54/54/54 55/55/55 53/53/53
f 54/54/54 56/56/56 55/55/55
g mat0model0surf10
# SURFACETYPE MST_PLANAR
# vertex 57
v -42.875000 33.625000 -48.625000
vn -0.853956 0.090733 -0.512374
vt 0.846589 0.217817
# vertex 58
v -76.000000 13.625000 3.250000
vn -0.853956 0.090733 -0.512374
vt 1.327254 0.060996
# vertex 59
v -25.625000 23.625000 -79.125000
vn -0.853956 0.090733 -0.512374
vt 0.572928 0.139376
# vertex 60
v -61.500000 -19.375000 -26.875000
vn -0.853956 0.090733 -0.512374
vt 1.067159 -0.197926
# vertex 61
v -16.875000 8.125000 -96.250000
vn -0.853956 0.090733 -0.512374
vt 0.423035 0.017855
# vertex 62
v -26.000000 -3.250000 -83.125000
vn -0.853956 0.090733 -0.512374
vt 0.547639 -0.071405
f 57/57/57 59/59/59 58/58/58
f 59/59/59 60/60/60 58/58/58
f 59/59/59 61/61/61 60/60/60
f 61/61/61 62/62/62 60/60/60
g mat0model0surf11
# SURFACETYPE MST_PLANAR
# vertex 63
v -1.125000 -26.375000 60.125000
vn -0.208553 -0.275221 0.938488
vt 0.093318 -0.071372
# vertex 64
v -24.000000 -21.375000 56.500000
vn -0.208553 -0.275221 0.938488
vt -0.087281 -0.030757
# vertex 65
v 21.875000 -5.625000 71.375000
vn -0.208553 -0.275221 0.938488
vt 0.287793 0.097362
# vertex 66
v -14.875000 13.375000 68.750000
vn -0.208553 -0.275221 0.938488
vt 0.003072 0.251699
# vertex 67
v 24.375000 9.750000 76.500000
vn -0.208553 -0.275221 0.938488
vt 0.315545 0.222432
# vertex 68
v 24.125000 9.875000 76.375000
vn -0.208553 -0.275221 0.938488
vt 0.313426 0.223225
f 63/63/63 65/65/65 64/64/64
f 65/65/65 66/66/66 64/64/64
f 65/65/65 67/67/67 66/66/66
f 67/67/67 68/68/68 66/66/66
g mat0model0surf12
# SURFACETYPE MST_PLANAR
# vertex 69
v -14.875000 13.375000 68.750000
vn -0.099765 0.610573 0.785651
vt 0.952376 0.748483
# vertex 70
v -60.125000 31.250000 49.125000
vn -0.099765 0.610573 0.785651
vt 0.582362 0.924756
# vertex 71
v 24.125000 9.875000 76.375000
vn -0.099765 0.610573 0.785651
vt 1.262140 0.714181
# vertex 72
v -34.625000 54.000000 34.625000
vn -0.099765 0.610573 0.785651
vt 0.765724 1.149453
# vertex 73
v 4.750000 40.000000 50.500000
vn -0.099765 0.610573 0.785651
vt 1.086514 1.011371
# vertex 74
v -30.375000 55.875000 33.750000
vn -0.099765 0.610573 0.785651
vt 0.797801 1.167748
f 69/69/69 71/71/71 70/70/70
f 71/71/71 72/72/72 70/70/70
f 71/71/71 73/73/73 72/72/72
f 73/73/73 74/74/74 72/72/72
g mat0model0surf13
# SURFACETYPE MST_PLANAR
# vertex 75
v 20.875000 -100.250000 4.000000
vn 0.128136 -0.576120 0.807259
vt 0.156170 0.392348
# vertex 76
v -4.125000 -33.375000 55.625000
vn 0.128136 -0.576120 0.807259
vt -0.099955 1.031237
# vertex 77
v 25.250000 -100.375000 3.125000
vn 0.128136 -0.576120 0.807259
vt 0.190999 0.390747
# vertex 78
v -1.125000 -26.375000 60.125000
vn 0.128136 -0.576120 0.807259
vt -0.082318 1.098057
# vertex 79
v 43.500000 -91.000000 7.000000
vn 0.128136 -0.576120 0.807259
vt 0.327069 0.480715
# vertex 80
v 21.875000 -5.625000 71.375000
vn 0.128136 -0.576120 0.807259
vt 0.081369 1.296798
f 75/75/75 77/77/77 76/76/76
f 77/77/77 78/78/78 76/76/76
f 77/77/77 79/79/79 78/78/78
f 79/79/79 80/80/80 78/78/78
g mat0model0surf14
# SURFACETYPE MST_PLANAR
# vertex 81
v 75.500000 -43.875000 -10.250000
vn 0.436843 -0.556599 -0.706658
vt 0.540389 0.925773
# vertex 82
v -0.250000 -0.125000 -91.625000
vn 0.436843 -0.556599 -0.706658
vt 1.378055 1.337515
# vertex 83
v 25.250000 -100.375000 3.125000
vn 0.436843 -0.556599 -0.706658
vt 0.819369 0.394694
# vertex 84
v 43.625000 -3.375000 -61.875000
vn 0.436843 -0.556599 -0.706658
vt 0.964282 1.306704
# vertex 85
v 69.500000 -58.250000 -2.625000
vn 0.436843 -0.556599 -0.706658
vt 0.548937 0.790551
# vertex 86
v 43.500000 -91.000000 7.000000
vn 0.436843 -0.556599 -0.706658
vt 0.682175 0.482938
f 81/81/81 83/83/83 82/82/82
f 84/84/84 81/81/81 82/82/82
f 81/81/81 85/85/85 83/83/83
f 85/85/85 86/86/86 83/83/83
g mat0model0surf15
# SURFACETYPE MST_PLANAR
# vertex 87
v 43.500000 -91.000000 7.000000
vn 0.666667 -0.333333 0.666667
vt 0.201636 0.422714
# vertex 88
v 21.875000 -5.625000 71.375000
vn 0.666667 -0.333333 0.666667
vt -0.273451 1.130281
# vertex 89
v 69.500000 -58.250000 -2.625000
vn 0.666667 -0.333333 0.666667
vt 0.398438 0.694093
# vertex 90
v 24.375000 9.750000 76.500000
vn 0.666667 -0.333333 0.666667
vt -0.287953 1.257569
# vertex 91
v 36.625000 15.875000 67.250000
vn 0.666667 -0.333333 0.666667
vt -0.169181 1.308208
f 87/87/87 89/89/89 88/88/88
f 89/89/89 90/90/90 88/88/88
f 89/89/89 91/91/91 90/90/90
g mat0model0surf16
# SURFACETYPE MST_PLANAR
# vertex 92
v -34.625000 54.000000 34.625000
vn -0.388637 0.921071 0.024290
vt 0.253107 -0.099937
# vertex 93
v -36.000000 54.625000 -5.375000
vn -0.388637 0.921071 0.024290
vt -0.059454 -0.089956
# vertex 94
v -30.375000 55.875000 33.750000
vn -0.388637 0.921071 0.024290
vt 0.248356 -0.063318
# vertex 95
v -24.125000 59.625000 -6.125000
vn -0.388637 0.921071 0.024290
vt -0.059515 0.010876
# vertex 96
v -13.250000 63.375000 25.375000
vn -0.388637 0.921071 0.024290
vt 0.191399 0.086247
# vertex 97
v -1.375000 68.625000 15.250000
vn -0.388637 0.921071 0.024290
vt 0.118239 0.192048
f 92/92/92 94/94/94 93/93/93
f 94/94/94 95/95/95 93/93/93
f 94/94/94 96/96/96 95/95/95
f 96/96/96 97/97/97 95/95/95
g mat0model0surf17
# SURFACETYPE MST_PLANAR
# vertex 98
v 4.750000 40.000000 50.500000
vn 0.010545 0.737876 0.674854
vt 1.030941 -0.080590
# vertex 99
v -30.375000 55.875000 33.750000
vn 0.010545 0.737876 0.674854
vt 0.758605 0.102828
# vertex 100
v 8.625000 51.125000 38.375000
vn 0.010545 0.737876 0.674854
vt 1.062691 0.047611
# vertex 101
v -13.250000 63.375000 25.375000
vn 0.010545 0.737876 0.674854
vt 0.893400 0.189106
f 98/98/98 100/100/100 99/99/99
f 100/100/100 101/101/101 99/99/99
g mat0model0surf18
# SURFACETYPE MST_PLANAR
# vertex 102
v -36.375000 51.125000 -21.500000
vn -0.324733 0.828411 -0.456382
vt 1.134166 0.973860
# vertex 103
v -42.875000 33.625000 -48.625000
vn -0.324733 0.828411 -0.456382
vt 1.052684 0.729854
# vertex 104
v -22.625000 57.500000 -19.750000
vn -0.324733 0.828411 -0.456382
vt 1.054566 1.062577
# vertex 105
v -25.625000 23.625000 -79.125000
vn -0.324733 0.828411 -0.456382
vt 0.804734 0.589984
# vertex 106
v -12.125000 59.000000 -24.375000
vn -0.324733 0.828411 -0.456382
vt 0.966780 1.084150
# vertex 107
v -5.125000 56.500000 -34.000000
vn -0.324733 0.828411 -0.456382
vt 0.878626 1.048719
f 102/102/102 104/104/104 103/103/103
f 104/104/104 105/105/105 103/103/103
f 104/104/104 106/106/106 105/105/105
f 106/106/106 107/107/107 105/105/105
g mat0model0surf19
# SURFACETYPE MST_PLANAR
# vertex 108
v 24.125000 9.875000 76.375000
vn 0.167451 0.702080 0.692130
vt 0.042881 0.616651
# vertex 109
v 4.750000 40.000000 50.500000
vn 0.167451 0.702080 0.692130
vt -0.056706 0.947179
# vertex 110
v 24.375000 9.750000 76.500000
vn 0.167451 0.702080 0.692130
vt 0.044550 0.614967
# vertex 111
v 8.625000 51.125000 38.375000
vn 0.167451 0.702080 0.692130
vt -0.005006 1.068713
# vertex 112
v 36.625000 15.875000 67.250000
vn 0.167451 0.702080 0.692130
vt 0.154563 0.682555
# vertex 113
v 31.625000 53.000000 30.875000
vn 0.167451 0.702080 0.692130
vt 0.183421 1.089462
# vertex 114
v 55.250000 38.875000 39.500000
vn 0.167451 0.702080 0.692130
vt 0.346971 0.934428
f 108/108/108 110/110/110 109/109/109
f 110/110/110 111/111/111 109/109/109
f 110/110/110 112/112/112 111/111/111
f 112/112/112 113/113/113 111/111/111
f 112/112/112 114/114/114 113/113/113
g mat0model0surf20
# SURFACETYPE MST_PLANAR
# vertex 115
v -36.000000 54.625000 -5.375000
vn -0.393159 0.901071 -0.183022
vt 0.080626 0.939353
# vertex 116
v -38.750000 52.375000 -10.375000
vn -0.393159 0.901071 -0.183022
vt 0.054280 0.899324
# vertex 117
v -24.125000 59.625000 -6.125000
vn -0.393159 0.901071 -0.183022
vt 0.036161 1.029851
# vertex 118
v -36.375000 51.125000 -21.500000
vn -0.393159 0.901071 -0.183022
vt -0.032345 0.877195
# vertex 119
v -22.625000 57.500000 -19.750000
vn -0.393159 0.901071 -0.183022
vt -0.065286 0.991745
f 115/115/115 117/117/117 116/116/116
f 117/117/117 118/118/118 116/116/116
f 117/117/117 119/119/119 118/118/118
g mat0model0surf21
# SURFACETYPE MST_PLANAR
# vertex 120
v -1.375000 68.625000 15.250000
vn -0.217711 0.960347 -0.174169
vt 0.099744 0.212897
# vertex 121
v -24.125000 59.625000 -6.125000
vn -0.217711 0.960347 -0.174169
vt 0.080375 -0.040173
# vertex 122
v 5.125000 69.625000 12.500000
vn -0.217711 0.960347 -0.174169
vt 0.051245 0.240267
# vertex 123
v -22.625000 57.500000 -19.750000
vn -0.217711 0.960347 -0.174169
vt -0.010066 -0.099873
# vertex 124
v 7.000000 69.000000 7.000000
vn -0.217711 0.960347 -0.174169
vt 0.008541 0.224113
# vertex 125
v -12.125000 59.000000 -24.375000
vn -0.217711 0.960347 -0.174169
vt -0.089525 -0.056767
f 120/120/120 122/122/122 121/121/121
f 122/122/122 123/123/123 121/121/121
f 122/122/122 124/124/124 123/123/123
f 124/124/124 125/125/125 123/123/123
g mat0model0surf22
# SURFACETYPE MST_PLANAR
# vertex 126
v 8.625000 51.125000 38.375000
vn 0.117211 0.814625 0.568020
vt 0.005404 -0.018627
# vertex 127
v -13.250000 63.375000 25.375000
vn 0.117211 0.814625 0.568020
vt -0.141443 0.146042
# vertex 128
v 31.625000 53.000000 30.875000
vn 0.117211 0.814625 0.568020
vt 0.193226 0.007034
# vertex 129
v -1.375000 68.625000 15.250000
vn 0.117211 0.814625 0.568020
vt -0.034598 0.217666
# vertex 130
v 5.125000 69.625000 12.500000
vn 0.117211 0.814625 0.568020
vt 0.019477 0.230978
f 126/126/126 128/128/128 127/127/127
f 128/128/128 129/129/129 127/127/127
f 128/128/128 130/130/130 129/129/129
g mat0model0surf23
# SURFACETYPE MST_PLANAR
# vertex 131
v 69.500000 -58.250000 -2.625000
vn 0.860784 -0.090725 0.500820
vt 0.290781 0.588441
# vertex 132
v 36.625000 15.875000 67.250000
vn 0.860784 -0.090725 0.500820
vt -0.310226 1.169921
# vertex 133
v 75.500000 -43.875000 -10.250000
vn 0.860784 -0.090725 0.500820
vt 0.365844 0.701241
# vertex 134
v 55.250000 38.875000 39.500000
vn 0.860784 -0.090725 0.500820
vt -0.049663 1.350386
# vertex 135
v 70.750000 32.250000 11.625000
vn 0.860784 -0.090725 0.500820
vt 0.199466 1.298402
f 131/131/131 133/133/133 132/132/132
f 133/133/133 134/134/134 132/132/132
f 133/133/133 135/135/135 134/134/134
g mat0model0surf24
# SURFACETYPE MST_PLANAR
# vertex 136
v -5.125000 56.500000 -34.000000
vn 0.140933 0.768503 -0.624132
vt 0.097563 1.090089
# vertex 137
v -25.625000 23.625000 -79.125000
vn 0.140933 0.768503 -0.624132
vt 0.331436 0.688590
# vertex 138
v 17.875000 60.375000 -24.000000
vn 0.140933 0.768503 -0.624132
vt -0.094920 1.137609
# vertex 139
v -16.875000 8.125000 -96.250000
vn 0.140933 0.768503 -0.624132
vt 0.294224 0.499245
# vertex 140
v 22.375000 55.750000 -28.625000
vn 0.140933 0.768503 -0.624132
vt -0.121254 1.081452
# vertex 141
v -13.875000 7.500000 -96.250000
vn 0.140933 0.768503 -0.624132
vt 0.271362 0.492154
# vertex 142
v 20.625000 40.000000 -48.500000
vn 0.140933 0.768503 -0.624132
vt -0.073717 0.888638
f 136/136/136 138/138/138 137/137/137
f 138/138/138 139/139/139 137/137/137
f 138/138/138 140/140/140 139/139/139
f 140/140/140 141/141/141 139/139/139
f 140/140/140 142/142/142 141/141/141
g mat0model0surf25
# SURFACETYPE MST_PLANAR
# vertex 143
v 20.625000 40.000000 -48.500000
vn 0.514655 0.489019 -0.704265
vt 0.093464 1.076490
# vertex 144
v -13.875000 7.500000 -96.250000
vn 0.514655 0.489019 -0.704265
vt 0.531185 0.785492
# vertex 145
v 49.750000 28.375000 -35.250000
vn 0.514655 0.489019 -0.704265
vt -0.151325 0.972489
# vertex 146
v -0.250000 -0.125000 -91.625000
vn 0.514655 0.489019 -0.704265
vt 0.423923 0.717084
# vertex 147
v 43.625000 -3.375000 -61.875000
vn 0.514655 0.489019 -0.704265
vt 0.010038 0.687804
f 143/143/143 145/145/145 144/144/144
f 145/145/145 146/146/146 144/144/144
f 145/145/145 147/147/147 146/146/146
g mat0model0surf26
# SURFACETYPE MST_PLANAR
# vertex 148
v 7.000000 69.000000 7.000000
vn -0.039693 0.958516 -0.282262
vt 0.953461 0.212862
# vertex 149
v -12.125000 59.000000 -24.375000
vn -0.039693 0.958516 -0.282262
vt 1.067285 -0.062010
# vertex 150
v 15.000000 65.500000 -6.125000
vn -0.039693 0.958516 -0.282262
vt 0.877291 0.116082
# vertex 151
v -5.125000 56.500000 -34.000000
vn -0.039693 0.958516 -0.282262
vt 1.002659 -0.131651
# vertex 152
v 17.750000 63.375000 -13.875000
vn -0.039693 0.958516 -0.282262
vt 0.847584 0.056748
# vertex 153
v 17.875000 60.375000 -24.000000
vn -0.039693 0.958516 -0.282262
vt 0.835602 -0.024883
f 148/148/148 150/150/150 149/149/149
f 150/150/150 151/151/151 149/149/149
f 150/150/150 152/152/152 151/151/151
f 152/152/152 153/153/153 151/151/151
g mat0model0surf27
# SURFACETYPE MST_PLANAR
# vertex 154
v 31.625000 53.000000 30.875000
vn 0.493952 0.866621 0.070565
vt 0.796154 0.965077
# vertex 155
v 5.125000 69.625000 12.500000
vn 0.493952 0.866621 0.070565
vt 0.908988 1.225092
# vertex 156
v 55.250000 38.875000 39.500000
vn 0.493952 0.866621 0.070565
vt 0.755551 0.743412
# vertex 157
v 7.000000 69.000000 7.000000
vn 0.493952 0.866621 0.070565
vt 0.953596 1.215355
# vertex 158
v 70.750000 32.250000 11.625000
vn 0.493952 0.866621 0.070565
vt 0.988261 0.640388
# vertex 159
v 15.000000 65.500000 -6.125000
vn 0.493952 0.866621 0.070565
vt 1.063943 1.160659
# vertex 160
v 69.625000 33.125000 9.375000
vn 0.493952 0.866621 0.070565
vt 1.004419 0.653494
# vertex 161
v 29.125000 57.500000 -6.125000
vn 0.493952 0.866621 0.070565
vt 1.079550 1.034802
f 156/156/156 158/158/158 157/157/157
f 155/155/155 156/156/156 157/157/157
f 157/157/157 158/158/158 159/159/159
f 158/158/158 160/160/160 159/159/159
f 154/154/154 156/156/156 155/155/155
f 159/159/159 160/160/160 161/161/161
g mat0model0surf28
# SURFACETYPE MST_PLANAR
# vertex 162
v 53.625000 34.750000 -24.375000
vn 0.892645 0.174669 -0.415542
vt 0.995833 1.186932
# vertex 163
v 43.625000 -3.375000 -61.875000
vn 0.892645 0.174669 -0.415542
vt 1.294404 0.884435
# vertex 164
v 75.500000 -43.875000 -10.250000
vn 0.892645 0.174669 -0.415542
vt 0.823666 0.563190
# vertex 165
v 49.750000 28.375000 -35.250000
vn 0.892645 0.174669 -0.415542
vt 1.085633 1.136424
# vertex 166
v 69.625000 33.125000 9.375000
vn 0.892645 0.174669 -0.415542
vt 0.704039 1.174075
# vertex 167
v 70.750000 32.250000 11.625000
vn 0.892645 0.174669 -0.415542
vt 0.684394 1.167248
f 162/162/162 164/164/164 163/163/163
f 165/165/165 162/162/162 163/163/163
f 162/162/162 166/166/166 164/164/164
f 166/166/166 167/167/167 164/164/164
g mat0model0surf29
# SURFACETYPE MST_PLANAR
# vertex 168
v 15.000000 65.500000 -6.125000
vn 0.494108 0.866619 -0.069484
vt 0.031066 0.148990
# vertex 169
v 17.750000 63.375000 -13.875000
vn 0.494108 0.866619 -0.069484
vt 0.088032 0.114962
# vertex 170
v 29.125000 57.500000 -6.125000
vn 0.494108 0.866619 -0.069484
vt 0.015699 0.023103
f 168/168/168 170/170/170 169/169/169
g mat0model0surf30
# SURFACETYPE MST_PLANAR
# vertex 171
v 29.125000 57.500000 -6.125000
vn 0.564807 0.792595 -0.229752
vt 0.958588 1.092565
# vertex 172
v 17.750000 63.375000 -13.875000
vn 0.564807 0.792595 -0.229752
vt 1.048158 1.167714
# vertex 173
v 69.625000 33.125000 9.375000
vn 0.564807 0.792595 -0.229752
vt 0.727199 0.780317
# vertex 174
v 17.875000 60.375000 -24.000000
vn 0.564807 0.792595 -0.229752
vt 1.121061 1.129083
# vertex 175
v 53.625000 34.750000 -24.375000
vn 0.564807 0.792595 -0.229752
vt 1.018536 0.801085
# vertex 176
v 22.375000 55.750000 -28.625000
vn 0.564807 0.792595 -0.229752
vt 1.141284 1.070449
f 171/171/171 173/173/173 172/172/172
f 173/173/173 174/174/174 172/172/172
f 173/173/173 175/175/175 174/174/174
f 175/175/175 176/176/176 174/174/174
g mat0model0surf31
# SURFACETYPE MST_PLANAR
# vertex 177
v 22.375000 55.750000 -28.625000
vn 0.513686 0.648751 -0.561471
vt 1.021983 0.147860
# vertex 178
v 20.625000 40.000000 -48.500000
vn 0.513686 0.648751 -0.561471
vt 1.136882 -0.014114
# vertex 179
v 53.625000 34.750000 -24.375000
vn 0.513686 0.648751 -0.561471
vt 0.819443 -0.068012
# vertex 180
v 49.750000 28.375000 -35.250000
vn 0.513686 0.648751 -0.561471
vt 0.899128 -0.133323
f 177/177/177 179/179/179 178/178/178
f 179/179/179 180/180/180 178/178/178
