o rocks_misc_03
# Generated by Q3Map2 (ydnar) -convert -format obj
mtllib rocks_misc_03.mtl
g mat0model0surf0
# SURFACETYPE MST_PLANAR
usemtl textures/prometheus_custom/rocks_01
# vertex 1
v 32.000000 -144.000000 64.000000
vn 0.824475 -0.274825 -0.494685
vt 0.442630 -0.093464
# vertex 2
v 48.000000 -96.000000 64.000000
vn 0.824475 -0.274825 -0.494685
vt 0.378318 0.296554
# vertex 3
v 32.000000 0.000000 -16.000000
vn 0.824475 -0.274825 -0.494685
vt 0.978563 1.076590
f 1/1/1 3/3/3 2/2/2
g mat0model0surf1
# SURFACETYPE MST_PLANAR
# vertex 4
v 48.000000 -96.000000 80.000000
vn 0.948683 -0.316228 -0.000000
vt 0.375000 0.407073
# vertex 5
v 48.000000 -96.000000 64.000000
vn 0.948683 -0.316228 -0.000000
vt 0.500000 0.407073
# vertex 6
v 32.000000 -144.000000 64.000000
vn 0.948683 -0.316228 -0.000000
vt 0.500000 0.011788
f 4/4/4 6/6/6 5/5/5
g mat0model0surf2
# SURFACETYPE MST_PLANAR
# vertex 7
v 16.000000 -16.000000 64.000000
vn -0.586588 -0.073324 0.806559
vt 0.395178 0.899595
# vertex 8
v 48.000000 -96.000000 80.000000
vn -0.586588 -0.073324 0.806559
vt 0.670883 0.272908
# vertex 9
v 32.000000 -144.000000 64.000000
vn -0.586588 -0.073324 0.806559
vt 0.496270 -0.103104
f 7/7/7 9/9/9 8/8/8
g mat0model0surf3
# SURFACETYPE MST_PLANAR
# vertex 10
v -48.000000 32.000000 -0.000000
vn -0.737829 -0.092229 0.668657
vt -0.251820 1.274562
# vertex 11
v 16.000000 -16.000000 64.000000
vn -0.737829 -0.092229 0.668657
vt 0.454433 0.897957
# vertex 12
v 32.000000 -144.000000 64.000000
vn -0.737829 -0.092229 0.668657
vt 0.538373 -0.106323
f 10/10/10 12/12/12 11/11/11
g mat0model0surf4
# SURFACETYPE MST_PLANAR
# vertex 13
v -32.000000 -80.000000 -0.000000
vn -0.754829 -0.107833 0.646997
vt -0.162698 0.399113
# vertex 14
v -48.000000 32.000000 -0.000000
vn -0.754829 -0.107833 0.646997
vt -0.244047 1.279245
# vertex 15
v 32.000000 -144.000000 64.000000
vn -0.754829 -0.107833 0.646997
vt 0.542326 -0.103820
f 13/13/13 15/15/15 14/14/14
g mat0model0surf5
# SURFACETYPE MST_PLANAR
# vertex 16
v -32.000000 -80.000000 -0.000000
vn 0.226455 -0.566139 -0.792594
vt 1.240381 0.445924
# vertex 17
v 32.000000 -144.000000 64.000000
vn 0.226455 -0.566139 -0.792594
vt 0.622258 -0.160644
# vertex 18
v 0.000000 0.000000 -48.000000
vn 0.226455 -0.566139 -0.792594
vt 1.103020 1.204133
f 16/16/16 18/18/18 17/17/17
g mat0model0surf6
# SURFACETYPE MST_PLANAR
# vertex 19
v 32.000000 -144.000000 64.000000
vn 0.658145 -0.365636 -0.658145
vt 0.469670 -0.111739
# vertex 20
v 32.000000 0.000000 -16.000000
vn 0.658145 -0.365636 -0.658145
vt 0.911612 1.096954
# vertex 21
v 0.000000 0.000000 -48.000000
vn 0.658145 -0.365636 -0.658145
vt 1.265165 1.096954
f 19/19/19 21/21/21 20/20/20
g mat0model0surf7
# SURFACETYPE MST_PLANAR
# vertex 22
v -32.000000 -80.000000 -0.000000
vn -0.737410 -0.105344 -0.667180
vt 1.167728 0.398007
# vertex 23
v 0.000000 0.000000 -48.000000
vn -0.737410 -0.105344 -0.667180
vt 0.721924 1.026504
# vertex 24
v -48.000000 32.000000 -0.000000
vn -0.737410 -0.105344 -0.667180
vt 1.251593 1.277903
f 22/22/22 24/24/24 23/23/23
g mat0model0surf8
# SURFACETYPE MST_PLANAR
# vertex 25
v 48.000000 -96.000000 80.000000
vn 0.878702 0.402739 0.256288
vt 0.505000 0.098049
# vertex 26
v 16.000000 -16.000000 64.000000
vn 0.878702 0.402739 0.256288
vt 0.555000 0.780874
# vertex 27
v 32.000000 0.000000 -16.000000
vn 0.878702 0.402739 0.256288
vt 1.190000 0.917439
f 25/25/25 27/27/27 26/26/26
g mat0model0surf9
# SURFACETYPE MST_PLANAR
# vertex 28
v 48.000000 -96.000000 64.000000
vn 0.986394 0.164399 0.000000
vt 0.500000 0.198555
# vertex 29
v 48.000000 -96.000000 80.000000
vn 0.986394 0.164399 0.000000
vt 0.375000 0.198555
# vertex 30
v 32.000000 0.000000 -16.000000
vn 0.986394 0.164399 0.000000
vt 1.125000 0.958900
f 28/28/28 30/30/30 29/29/29
g mat0model0surf10
# SURFACETYPE MST_PLANAR
# vertex 31
v -16.000000 32.000000 -32.000000
vn 0.331295 0.883452 0.331295
vt 1.088388 1.351391
# vertex 32
v 16.000000 -16.000000 64.000000
vn 0.331295 0.883452 0.331295
vt 0.734835 0.551000
# vertex 33
v -48.000000 32.000000 -0.000000
vn 0.331295 0.883452 0.331295
vt 0.734835 1.351391
f 31/31/31 33/33/33 32/32/32
g mat0model0surf11
# SURFACETYPE MST_PLANAR
# vertex 34
v 0.000000 0.000000 -48.000000
vn -0.707107 0.000000 -0.707107
vt -0.265165 0.000000
# vertex 35
v -16.000000 32.000000 -32.000000
vn -0.707107 0.000000 -0.707107
vt -0.088388 0.250000
# vertex 36
v -48.000000 32.000000 -0.000000
vn -0.707107 0.000000 -0.707107
vt 0.265165 0.250000
f 34/34/34 36/36/36 35/35/35
g mat0model0surf12
# SURFACETYPE MST_PLANAR
# vertex 37
v 16.000000 -16.000000 64.000000
vn 0.534522 0.801784 0.267261
vt 0.608688 0.656372
# vertex 38
v 16.000000 16.000000 -32.000000
vn 0.534522 0.801784 0.267261
vt 1.279508 1.074702
# vertex 39
v 32.000000 0.000000 -16.000000
vn 0.534522 0.801784 0.267261
vt 1.223607 0.865537
f 37/37/37 39/39/39 38/38/38
g mat0model0surf13
# SURFACETYPE MST_PLANAR
# vertex 40
v -16.000000 32.000000 -32.000000
vn 0.428571 0.857143 0.285714
vt 1.138675 1.336782
# vertex 41
v 16.000000 16.000000 -32.000000
vn 0.428571 0.857143 0.285714
vt 1.277350 1.094101
# vertex 42
v 16.000000 -16.000000 64.000000
vn 0.428571 0.857143 0.285714
vt 0.653312 0.608738
f 40/40/40 42/42/42 41/41/41
g mat0model0surf14
# SURFACETYPE MST_PLANAR
# vertex 43
v -16.000000 32.000000 -32.000000
vn 0.267261 0.534522 -0.801784
vt 0.197642 1.105644
# vertex 44
v 0.000000 0.000000 -48.000000
vn 0.267261 0.534522 -0.801784
vt 0.118585 0.809840
# vertex 45
v 16.000000 16.000000 -32.000000
vn 0.267261 0.534522 -0.801784
vt -0.039528 0.957742
f 43/43/43 45/45/45 44/44/44
g mat0model0surf15
# SURFACETYPE MST_PLANAR
# vertex 46
v 32.000000 0.000000 -16.000000
vn 0.707107 0.000000 -0.707107
vt -0.088388 0.000000
# vertex 47
v 16.000000 16.000000 -32.000000
vn 0.707107 0.000000 -0.707107
vt 0.088388 0.125000
# vertex 48
v 0.000000 0.000000 -48.000000
vn 0.707107 0.000000 -0.707107
vt 0.265165 0.000000
f 46/46/46 48/48/48 47/47/47
