o rocks_near_gradient_skybox
# Generated by Q3Map2 (ydnar) -convert -format obj
mtllib rocks_near_gradient_skybox.mtl
g mat1model0surf0
# SURFACETYPE MST_PLANAR
usemtl textures/prometheus_custom/rocks_gradient_skybox
# vertex 1
v 7.000000 12.375000 530.375000
vn 0.112672 0.877102 -0.466901
vt 0.000000 0.500000
# vertex 2
v -71.000000 156.000000 781.250000
vn 0.112762 0.876938 -0.467188
vt 0.000000 0.000000
# vertex 3
v -942.000000 130.000000 522.000000
vn 0.112940 0.876586 -0.467805
vt 1.000000 0.000000
# vertex 4
v 800.000000 182.000000 1041.000000
vn 0.112583 0.877290 -0.466571
vt -1.000000 0.000000
# vertex 5
v 878.000000 38.750000 790.000000
vn 0.112563 0.877099 -0.466933
vt -1.000000 0.500000
# vertex 6
v 956.000000 -105.000000 539.000000
vn 0.112544 0.876909 -0.467295
vt -1.000000 1.000000
# vertex 7
v 85.000000 -131.000000 279.750000
vn 0.112581 0.877266 -0.466615
vt 0.000000 1.000000
# vertex 8
v -786.000000 -157.000000 20.000000
vn 0.112620 0.877624 -0.465933
vt 1.000000 1.000000
# vertex 9
v -864.000000 -13.750000 271.000000
vn 0.112779 0.877105 -0.466869
vt 1.000000 0.500000
f 1/1/1 2/2/2 4/4/4
f 1/1/1 4/4/4 5/5/5
f 1/1/1 5/5/5 6/6/6
f 1/1/1 3/3/3 2/2/2
f 1/1/1 6/6/6 7/7/7
f 1/1/1 7/7/7 8/8/8
f 1/1/1 8/8/8 9/9/9
f 1/1/1 9/9/9 3/3/3
g mat1model0surf1
# SURFACETYPE MST_PLANAR
# vertex 10
v -142.000000 -62.000000 -344.000000
vn 0.362766 0.808182 0.463942
vt -1.000000 1.000000
# vertex 11
v -178.000000 -17.750000 -392.250000
vn 0.365432 0.805008 0.467355
vt -1.000000 0.500000
# vertex 12
v 386.000000 -17.750000 -832.750000
vn 0.364916 0.805010 0.467756
vt 1.000000 0.500000
# vertex 13
v 422.000000 -62.000000 -784.000000
vn 0.360702 0.810014 0.462354
vt 1.000000 1.000000
# vertex 14
v -214.000000 27.000000 -441.000000
vn 0.368086 0.801812 0.470755
vt -1.000000 0.000000
# vertex 15
v 350.000000 27.000000 -881.000000
vn 0.369103 0.799948 0.473124
vt 1.000000 0.000000
f 10/10/10 12/12/12 11/11/11
f 10/10/10 13/13/13 12/12/12
f 14/14/14 11/11/11 12/12/12
f 14/14/14 12/12/12 15/15/15
g mat1model0surf2
# SURFACETYPE MST_PLANAR
# vertex 16
v 557.000000 -38.000000 -661.000000
vn -0.142514 0.807093 0.572967
vt -1.000000 1.000000
# vertex 17
v 571.250000 6.250000 -719.750000
vn -0.143643 0.804197 0.576744
vt -1.000000 0.500000
# vertex 18
v 770.000000 6.250000 -670.375000
vn -0.142955 0.804204 0.576905
vt 0.000000 0.500000
# vertex 19
v 755.750000 -38.000000 -612.000000
vn -0.142292 0.806244 0.574216
vt 0.000000 1.000000
# vertex 20
v 586.000000 51.000000 -778.000000
vn -0.144760 0.801290 0.580499
vt -1.000000 0.000000
# vertex 21
v 954.000000 -38.000000 -563.000000
vn -0.142058 0.805388 0.575474
vt 1.000000 1.000000
# vertex 22
v 968.750000 6.250000 -621.250000
vn -0.142271 0.804208 0.577069
vt 1.000000 0.500000
# vertex 23
v 784.250000 51.000000 -729.000000
vn -0.143621 0.802152 0.579590
vt 0.000000 0.000000
# vertex 24
v 983.000000 51.000000 -680.000000
vn -0.142485 0.803023 0.578665
vt 1.000000 0.000000
f 16/16/16 18/18/18 17/17/17
f 16/16/16 19/19/19 18/18/18
f 17/17/17 18/18/18 20/20/20
f 18/18/18 19/19/19 21/21/21
f 18/18/18 21/21/21 22/22/22
f 18/18/18 23/23/23 20/20/20
f 18/18/18 24/24/24 23/23/23
f 18/18/18 22/22/22 24/24/24
