o rocks_misc_02
# Generated by Q3Map2 (ydnar) -convert -format obj
mtllib rocks_misc_02.mtl
g mat0model0surf0
# SURFACETYPE MST_PLANAR
usemtl textures/prometheus_custom/rocks_01
# vertex 1
v -75.250000 14.250000 -48.375000
vn -0.966379 -0.127972 -0.223011
vt -0.236059 1.194595
# vertex 2
v -87.250000 -22.625000 24.625000
vn -0.966379 -0.127972 -0.223011
vt 0.340730 0.904157
# vertex 3
v -76.875000 -77.750000 11.750000
vn -0.966379 -0.127972 -0.223011
vt 0.224494 0.469821
# vertex 4
v -86.125000 -9.500000 12.500000
vn -0.966379 -0.127972 -0.223011
vt 0.246452 1.007483
# vertex 5
v -69.750000 -48.000000 -36.125000
vn -0.966379 -0.127972 -0.223011
vt -0.152468 0.704154
# vertex 6
v -73.125000 -81.375000 -2.375000
vn -0.966379 -0.127972 -0.223011
vt 0.110380 0.441256
f 1/1/1 3/3/3 2/2/2
f 4/4/4 1/1/1 2/2/2
f 1/1/1 5/5/5 3/3/3
f 5/5/5 6/6/6 3/3/3
g mat0model0surf1
# SURFACETYPE MST_PLANAR
# vertex 7
v -76.875000 -77.750000 11.750000
vn -0.713032 -0.282435 0.641729
vt 0.666461 0.560735
# vertex 8
v -87.250000 -22.625000 24.625000
vn -0.713032 -0.282435 0.641729
vt 0.687003 1.009885
# vertex 9
v -52.125000 -79.000000 38.875000
vn -0.713032 -0.282435 0.641729
vt 0.953326 0.550813
# vertex 10
v -74.750000 -11.875000 43.250000
vn -0.713032 -0.282435 0.641729
vt 0.860487 1.097441
# vertex 11
v -50.125000 -73.000000 43.750000
vn -0.713032 -0.282435 0.641729
vt 0.992088 0.599695
# vertex 12
v -51.125000 -24.625000 63.875000
vn -0.713032 -0.282435 0.641729
vt 1.103727 0.993585
f 7/7/7 9/9/9 8/8/8
f 9/9/9 10/10/10 8/8/8
f 9/9/9 11/11/11 10/10/10
f 11/11/11 12/12/12 10/10/10
g mat0model0surf2
# SURFACETYPE MST_PLANAR
# vertex 13
v -73.125000 -81.375000 -2.375000
vn -0.240959 -0.954267 0.176954
vt -0.353107 1.238865
# vertex 14
v -76.875000 -77.750000 11.750000
vn -0.240959 -0.954267 0.176954
vt -0.281504 1.332196
# vertex 15
v -58.500000 -86.875000 -12.125000
vn -0.240959 -0.954267 0.176954
vt -0.346871 1.095113
# vertex 16
v -52.125000 -79.000000 38.875000
vn -0.240959 -0.954267 0.176954
vt 0.003751 1.300252
# vertex 17
v 41.750000 -116.125000 -33.375000
vn -0.240959 -0.954267 0.176954
vt -0.017095 0.330629
# vertex 18
v 14.375000 -93.125000 53.125000
vn -0.240959 -0.954267 0.176954
vt 0.400998 0.930551
# vertex 19
v 58.875000 -119.875000 -30.000000
vn -0.240959 -0.954267 0.176954
vt 0.083348 0.233861
# vertex 20
v 63.125000 -110.250000 27.625000
vn -0.240959 -0.954267 0.176954
vt 0.465861 0.485092
f 15/15/15 17/17/17 16/16/16
f 14/14/14 15/15/15 16/16/16
f 16/16/16 17/17/17 18/18/18
f 17/17/17 19/19/19 18/18/18
f 13/13/13 15/15/15 14/14/14
f 18/18/18 19/19/19 20/20/20
g mat0model0surf3
# SURFACETYPE MST_PLANAR
# vertex 21
v -69.750000 -48.000000 -36.125000
vn -0.594552 -0.541309 -0.594552
vt 0.185754 1.001293
# vertex 22
v -73.125000 -81.375000 -2.375000
vn -0.594552 -0.541309 -0.594552
vt 0.390842 0.691223
# vertex 23
v -51.875000 -47.000000 -55.000000
vn -0.594552 -0.541309 -0.594552
vt -0.017263 1.010852
# vertex 24
v -58.500000 -86.875000 -12.125000
vn -0.594552 -0.541309 -0.594552
vt 0.256188 0.640516
# vertex 25
v -40.625000 -68.750000 -46.375000
vn -0.594552 -0.541309 -0.594552
vt -0.031765 0.808545
f 21/21/21 23/23/23 22/22/22
f 23/23/23 24/24/24 22/22/22
f 23/23/23 25/25/25 24/24/24
g mat0model0surf4
# SURFACETYPE MST_PLANAR
# vertex 26
v 14.375000 -93.125000 53.125000
vn -0.285032 -0.540257 0.791757
vt 1.246248 0.578198
# vertex 27
v -52.125000 -79.000000 38.875000
vn -0.285032 -0.540257 0.791757
vt 0.719718 0.709540
# vertex 28
v -4.500000 -38.750000 83.500000
vn -0.285032 -0.540257 0.791757
vt 1.187883 1.083283
# vertex 29
v -50.125000 -73.000000 43.750000
vn -0.285032 -0.540257 0.791757
vt 0.747320 0.765486
# vertex 30
v -20.250000 -31.000000 83.125000
vn -0.285032 -0.540257 0.791757
vt 1.071118 1.155261
f 26/26/26 28/28/28 27/27/27
f 28/28/28 29/29/29 27/27/27
f 28/28/28 30/30/30 29/29/29
g mat0model0surf5
# SURFACETYPE MST_PLANAR
# vertex 31
v -50.125000 -73.000000 43.750000
vn -0.547192 -0.331885 0.768397
vt -0.120719 0.629805
# vertex 32
v -51.125000 -24.625000 63.875000
vn -0.547192 -0.331885 0.768397
vt -0.035881 1.030323
# vertex 33
v -20.250000 -31.000000 83.125000
vn -0.547192 -0.331885 0.768397
vt 0.247839 0.977561
# vertex 34
v -27.500000 -21.375000 82.125000
vn -0.547192 -0.331885 0.768397
vt 0.197169 1.057286
f 31/31/31 33/33/33 32/32/32
f 33/33/33 34/34/34 32/32/32
g mat0model0surf6
# SURFACETYPE MST_PLANAR
# vertex 35
v -74.750000 -11.875000 43.250000
vn -0.852977 0.390961 0.345802
vt 0.093731 0.653391
# vertex 36
v -87.250000 -22.625000 24.625000
vn -0.852977 0.390961 0.345802
vt -0.077807 0.562081
# vertex 37
v -55.625000 20.625000 53.625000
vn -0.852977 0.390961 0.345802
vt 0.224983 0.929317
# vertex 38
v -86.125000 -9.500000 12.500000
vn -0.852977 0.390961 0.345802
vt -0.162292 0.673557
# vertex 39
v -56.875000 22.000000 49.125000
vn -0.852977 0.390961 0.345802
vt 0.188733 0.940830
# vertex 40
v -73.375000 14.750000 16.500000
vn -0.852977 0.390961 0.345802
vt -0.095908 0.879431
f 35/35/35 37/37/37 36/36/36
f 37/37/37 38/38/38 36/36/36
f 37/37/37 39/39/39 38/38/38
f 39/39/39 40/40/40 38/38/38
g mat0model0surf7
# SURFACETYPE MST_PLANAR
# vertex 41
v -40.625000 -68.750000 -46.375000
vn -0.339201 -0.747711 -0.570851
vt 1.087774 0.997458
# vertex 42
v -58.500000 -86.875000 -12.125000
vn -0.339201 -0.747711 -0.570851
vt 1.344514 0.784772
# vertex 43
v -25.875000 -65.750000 -59.125000
vn -0.339201 -0.747711 -0.570851
vt 0.937826 1.033036
# vertex 44
v 41.750000 -116.125000 -33.375000
vn -0.339201 -0.747711 -0.570851
vt 0.586401 0.440601
# vertex 45
v -13.125000 -68.000000 -63.750000
vn -0.339201 -0.747711 -0.570851
vt 0.833736 1.006544
f 41/41/41 43/43/43 42/42/42
f 43/43/43 44/44/44 42/42/42
f 43/43/43 45/45/45 44/44/44
g mat0model0surf8
# SURFACETYPE MST_PLANAR
# vertex 46
v -51.125000 -24.625000 63.875000
vn -0.617576 0.114406 0.778146
vt 0.997365 0.735755
# vertex 47
v -74.750000 -11.875000 43.250000
vn -0.617576 0.114406 0.778146
vt 0.752624 0.836023
# vertex 48
v -27.500000 -21.375000 82.125000
vn -0.617576 0.114406 0.778146
vt 1.230572 0.761328
# vertex 49
v -55.625000 20.625000 53.625000
vn -0.617576 0.114406 0.778146
vt 0.920047 1.091625
# vertex 50
v -26.500000 16.625000 77.250000
vn -0.617576 0.114406 0.778146
vt 1.213015 1.060223
# vertex 51
v -35.375000 30.625000 68.250000
vn -0.617576 0.114406 0.778146
vt 1.114995 1.170249
f 46/46/46 48/48/48 47/47/47
f 48/48/48 49/49/49 47/47/47
f 48/48/48 50/50/50 49/49/49
f 50/50/50 51/51/51 49/49/49
g mat0model0surf9
# SURFACETYPE MST_PLANAR
# vertex 52
v -73.375000 14.750000 16.500000
vn -0.886462 0.462271 0.022162
vt 1.114539 0.835783
# vertex 53
v -86.125000 -9.500000 12.500000
vn -0.886462 0.462271 0.022162
vt 1.080810 0.622117
# vertex 54
v -61.125000 38.500000 11.000000
vn -0.886462 0.462271 0.022162
vt 1.073976 1.045038
# vertex 55
v -75.250000 14.250000 -48.375000
vn -0.886462 0.462271 0.022162
vt 0.607496 0.831405
# vertex 56
v -50.875000 61.500000 -58.625000
vn -0.886462 0.462271 0.022162
vt 0.532202 1.247664
# vertex 57
v -67.750000 29.250000 -60.500000
vn -0.886462 0.462271 0.022162
vt 0.514263 0.963492
f 52/52/52 54/54/54 53/53/53
f 54/54/54 55/55/55 53/53/53
f 54/54/54 56/56/56 55/55/55
f 56/56/56 57/57/57 55/55/55
g mat0model0surf10
# SURFACETYPE MST_PLANAR
# vertex 58
v -38.375000 -23.250000 -75.750000
vn -0.705511 -0.195559 -0.681183
vt 0.782503 -0.055569
# vertex 59
v -75.250000 14.250000 -48.375000
vn -0.705511 -0.195559 -0.681183
vt 1.136462 0.243222
# vertex 60
v -69.750000 -48.000000 -36.125000
vn -0.705511 -0.195559 -0.681183
vt 1.175466 -0.252761
# vertex 61
v -67.750000 29.250000 -60.500000
vn -0.705511 -0.195559 -0.681183
vt 1.027617 0.362771
# vertex 62
v -46.500000 -43.250000 -61.625000
vn -0.705511 -0.195559 -0.681183
vt 0.905981 -0.214861
# vertex 63
v -51.875000 -47.000000 -55.000000
vn -0.705511 -0.195559 -0.681183
vt 0.972383 -0.244715
f 58/58/58 60/60/60 59/59/59
f 61/61/61 58/58/58 59/59/59
f 58/58/58 62/62/62 60/60/60
f 62/62/62 63/63/63 60/60/60
g mat0model0surf11
# SURFACETYPE MST_PLANAR
# vertex 64
v -20.250000 -31.000000 83.125000
vn 0.037177 0.125493 0.991398
vt 0.817572 0.679031
# vertex 65
v -27.500000 -21.375000 82.125000
vn 0.037177 0.125493 0.991398
vt 0.761264 0.754878
# vertex 66
v -4.500000 -38.750000 83.500000
vn 0.037177 0.125493 0.991398
vt 0.940423 0.618017
# vertex 67
v -26.500000 16.625000 77.250000
vn 0.037177 0.125493 0.991398
vt 0.770498 1.054146
# vertex 68
v 11.000000 -29.375000 81.750000
vn 0.037177 0.125493 0.991398
vt 1.061944 0.691825
# vertex 69
v 16.125000 12.875000 76.125000
vn 0.037177 0.125493 0.991398
vt 1.103601 1.024616
# vertex 70
v 19.750000 9.875000 76.375000
vn 0.037177 0.125493 0.991398
vt 1.131829 1.000986
f 64/64/64 66/66/66 65/65/65
f 66/66/66 67/67/67 65/65/65
f 66/66/66 68/68/68 67/67/67
f 68/68/68 69/69/69 67/67/67
f 68/68/68 70/70/70 69/69/69
g mat0model0surf12
# SURFACETYPE MST_PLANAR
# vertex 71
v -56.875000 22.000000 49.125000
vn -0.815607 0.492005 0.304493
vt 0.204141 0.878782
# vertex 72
v -73.375000 14.750000 16.500000
vn -0.815607 0.492005 0.304493
vt -0.079729 0.813915
# vertex 73
v -59.875000 38.625000 14.000000
vn -0.815607 0.492005 0.304493
vt -0.061139 1.028275
# vertex 74
v -61.125000 38.500000 11.000000
vn -0.815607 0.492005 0.304493
vt -0.086511 1.026957
f 71/71/71 73/73/73 72/72/72
f 73/73/73 74/74/74 72/72/72
g mat0model0surf13
# SURFACETYPE MST_PLANAR
# vertex 75
v 14.375000 -93.125000 53.125000
vn 0.324543 -0.372786 0.869312
vt -0.039950 0.484495
# vertex 76
v -4.500000 -38.750000 83.500000
vn 0.324543 -0.372786 0.869312
vt -0.261096 0.942329
# vertex 77
v 63.125000 -110.250000 27.625000
vn 0.324543 -0.372786 0.869312
vt 0.386532 0.340432
# vertex 78
v 11.000000 -29.375000 81.750000
vn 0.324543 -0.372786 0.869312
vt -0.142868 1.021306
# vertex 79
v 65.250000 -100.375000 31.000000
vn 0.324543 -0.372786 0.869312
vt 0.392864 0.423393
# vertex 80
v 63.000000 -28.000000 62.875000
vn 0.324543 -0.372786 0.869312
vt 0.289299 1.032742
f 75/75/75 77/77/77 76/76/76
f 77/77/77 78/78/78 76/76/76
f 77/77/77 79/79/79 78/78/78
f 79/79/79 80/80/80 78/78/78
g mat0model0surf14
# SURFACETYPE MST_PLANAR
# vertex 81
v -25.875000 -65.750000 -59.125000
vn -0.490849 -0.527255 -0.693591
vt 0.898175 0.823900
# vertex 82
v -51.875000 -47.000000 -55.000000
vn -0.490849 -0.527255 -0.693591
vt 1.082596 0.996366
# vertex 83
v -40.625000 -68.750000 -46.375000
vn -0.490849 -0.527255 -0.693591
vt 1.049778 0.796212
# vertex 84
v -46.500000 -43.250000 -61.625000
vn -0.490849 -0.527255 -0.693591
vt 1.018420 1.030746
f 81/81/81 83/83/83 82/82/82
f 84/84/84 81/81/81 82/82/82
g mat0model0surf15
# SURFACETYPE MST_PLANAR
# vertex 85
v -56.875000 22.000000 49.125000
vn -0.616155 0.689581 0.380566
vt 0.093032 0.724710
# vertex 86
v -59.875000 38.625000 14.000000
vn -0.616155 0.689581 0.380566
vt -0.152756 0.904461
# vertex 87
v -55.625000 20.625000 53.625000
vn -0.616155 0.689581 0.380566
vt 0.128074 0.709921
# vertex 88
v -46.500000 46.125000 22.250000
vn -0.616155 0.689581 0.380566
vt -0.043009 0.984844
# vertex 89
v -35.375000 30.625000 68.250000
vn -0.616155 0.689581 0.380566
vt 0.308419 0.817913
# vertex 90
v -22.375000 50.750000 52.875000
vn -0.616155 0.689581 0.380566
vt 0.259594 1.034890
f 85/85/85 87/87/87 86/86/86
f 87/87/87 88/88/88 86/86/86
f 87/87/87 89/89/89 88/88/88
f 89/89/89 90/90/90 88/88/88
g mat0model0surf16
# SURFACETYPE MST_PLANAR
# vertex 91
v -38.375000 -23.250000 -75.750000
vn -0.371625 -0.431372 -0.822079
vt 1.029414 1.122022
# vertex 92
v -46.500000 -43.250000 -61.625000
vn -0.371625 -0.431372 -0.822079
vt 1.132711 0.948960
# vertex 93
v -11.625000 -32.250000 -83.125000
vn -0.371625 -0.431372 -0.822079
vt 0.815250 1.044101
# vertex 94
v -25.875000 -65.750000 -59.125000
vn -0.371625 -0.431372 -0.822079
vt 0.993929 0.754065
# vertex 95
v -13.125000 -68.000000 -63.750000
vn -0.371625 -0.431372 -0.822079
vt 0.888280 0.734710
f 91/91/91 93/93/93 92/92/92
f 93/93/93 94/94/94 92/92/92
f 93/93/93 95/95/95 94/94/94
g mat0model0surf17
# SURFACETYPE MST_PLANAR
# vertex 96
v -26.500000 16.625000 77.250000
vn 0.071379 0.573968 0.815761
vt 0.741150 -0.228364
# vertex 97
v -35.375000 30.625000 68.250000
vn 0.071379 0.573968 0.815761
vt 0.678207 -0.095127
# vertex 98
v 16.125000 12.875000 76.125000
vn 0.071379 0.573968 0.815761
vt 1.073657 -0.263990
# vertex 99
v -22.375000 50.750000 52.875000
vn 0.071379 0.573968 0.815761
vt 0.789853 0.097222
# vertex 100
v 22.750000 42.000000 55.125000
vn 0.071379 0.573968 0.815761
vt 1.139518 0.013555
# vertex 101
v 7.750000 73.375000 34.375000
vn 0.071379 0.573968 0.815761
vt 1.036907 0.312831
f 96/96/96 98/98/98 97/97/97
f 98/98/98 99/99/99 97/97/97
f 98/98/98 100/100/100 99/99/99
f 100/100/100 101/101/101 99/99/99
g mat0model0surf18
# SURFACETYPE MST_PLANAR
# vertex 102
v 63.000000 -28.000000 62.875000
vn 0.338275 0.051211 0.939653
vt 0.296710 0.749331
# vertex 103
v 11.000000 -29.375000 81.750000
vn 0.338275 0.051211 0.939653
vt -0.135473 0.738545
# vertex 104
v 67.000000 0.375000 59.875000
vn 0.338275 0.051211 0.939653
vt 0.334052 0.971307
# vertex 105
v 19.750000 9.875000 76.375000
vn 0.338275 0.051211 0.939653
vt -0.056931 1.045620
# vertex 106
v 59.625000 4.375000 62.375000
vn 0.338275 0.051211 0.939653
vt 0.273225 1.002574
f 102/102/102 104/104/104 103/103/103
f 104/104/104 105/105/105 103/103/103
f 104/104/104 106/106/106 105/105/105
g mat0model0surf19
# SURFACETYPE MST_PLANAR
# vertex 107
v -59.875000 38.625000 14.000000
vn -0.561159 0.806862 0.184592
vt 0.957730 -0.207845
# vertex 108
v -61.125000 38.500000 11.000000
vn -0.561159 0.806862 0.184592
vt 0.932415 -0.209998
# vertex 109
v -46.500000 46.125000 22.250000
vn -0.561159 0.806862 0.184592
vt 1.051607 -0.109393
# vertex 110
v -50.875000 61.500000 -58.625000
vn -0.561159 0.806862 0.184592
vt 0.440730 0.094669
# vertex 111
v -15.125000 81.375000 -36.750000
vn -0.561159 0.806862 0.184592
vt 0.690344 0.357378
# vertex 112
v -35.500000 72.625000 -60.125000
vn -0.561159 0.806862 0.184592
vt 0.467131 0.241033
f 107/107/107 109/109/109 108/108/108
f 109/109/109 110/110/110 108/108/108
f 109/109/109 111/111/111 110/110/110
f 111/111/111 112/112/112 110/110/110
g mat0model0surf20
# SURFACETYPE MST_PLANAR
# vertex 113
v -11.625000 -32.250000 -83.125000
vn 0.065683 -0.478234 -0.875773
vt 1.139136 1.085181
# vertex 114
v -13.125000 -68.000000 -63.750000
vn 0.065683 -0.478234 -0.875773
vt 1.139501 0.767288
# vertex 115
v 11.500000 -22.750000 -86.625000
vn 0.065683 -0.478234 -0.875773
vt 0.961023 1.169864
# vertex 116
v 41.750000 -116.125000 -33.375000
vn 0.065683 -0.478234 -0.875773
vt 0.694242 0.339257
# vertex 117
v 66.125000 -81.125000 -50.625000
vn 0.065683 -0.478234 -0.875773
vt 0.514425 0.650479
# vertex 118
v 58.875000 -119.875000 -30.000000
vn 0.065683 -0.478234 -0.875773
vt 0.558856 0.305739
f 113/113/113 115/115/115 114/114/114
f 115/115/115 116/116/116 114/114/114
f 115/115/115 117/117/117 116/116/116
f 117/117/117 118/118/118 116/116/116
g mat0model0surf21
# SURFACETYPE MST_PLANAR
# vertex 119
v -22.375000 50.750000 52.875000
vn -0.478617 0.841852 0.249420
vt 1.285544 -0.077229
# vertex 120
v -46.500000 46.125000 22.250000
vn -0.478617 0.841852 0.249420
vt 0.986266 -0.144355
# vertex 121
v 7.750000 73.375000 34.375000
vn -0.478617 0.841852 0.249420
vt 1.266137 0.250103
# vertex 122
v -15.125000 81.375000 -36.750000
vn -0.478617 0.841852 0.249420
vt 0.690781 0.366599
# vertex 123
v 22.500000 91.875000 0.125000
vn -0.478617 0.841852 0.249420
vt 1.082101 0.518240
f 119/119/119 121/121/121 120/120/120
f 121/121/121 122/122/122 120/120/120
f 121/121/121 123/123/123 122/122/122
g mat0model0surf22
# SURFACETYPE MST_PLANAR
# vertex 124
v -50.875000 61.500000 -58.625000
vn -0.210069 0.163926 -0.963846
vt 0.290812 0.386738
# vertex 125
v -67.750000 29.250000 -60.500000
vn -0.210069 0.163926 -0.963846
vt 0.416505 0.131244
# vertex 126
v -35.500000 72.625000 -60.125000
vn -0.210069 0.163926 -0.963846
vt 0.170954 0.474792
# vertex 127
v -38.375000 -23.250000 -75.750000
vn -0.210069 0.163926 -0.963846
vt 0.166905 -0.284435
# vertex 128
v 21.125000 12.875000 -82.625000
vn -0.210069 0.163926 -0.963846
vt -0.298714 0.001598
# vertex 129
v -11.625000 -32.250000 -83.125000
vn -0.210069 0.163926 -0.963846
vt -0.049555 -0.355729
# vertex 130
v 11.500000 -22.750000 -86.625000
vn -0.210069 0.163926 -0.963846
vt -0.231898 -0.280587
f 124/124/124 126/126/126 125/125/125
f 126/126/126 127/127/127 125/125/125
f 126/126/126 128/128/128 127/127/127
f 128/128/128 129/129/129 127/127/127
f 128/128/128 130/130/130 129/129/129
g mat0model0surf23
# SURFACETYPE MST_PLANAR
# vertex 131
v 75.875000 -34.000000 -47.125000
vn 0.978850 -0.201260 -0.036707
vt 0.345692 0.861805
# vertex 132
v 58.875000 -119.875000 -30.000000
vn 0.978850 -0.201260 -0.036707
vt 0.216974 0.176914
# vertex 133
v 63.125000 -110.250000 27.625000
vn 0.978850 -0.201260 -0.036707
vt -0.234149 0.253853
# vertex 134
v 66.125000 -81.125000 -50.625000
vn 0.978850 -0.201260 -0.036707
vt 0.375871 0.486061
# vertex 135
v 78.750000 -22.125000 -37.750000
vn 0.978850 -0.201260 -0.036707
vt 0.271660 0.956645
# vertex 136
v 65.250000 -100.375000 31.000000
vn 0.978850 -0.201260 -0.036707
vt -0.261120 0.332563
# vertex 137
v 79.000000 -30.000000 11.625000
vn 0.978850 -0.201260 -0.036707
vt -0.113885 0.893864
f 131/131/131 133/133/133 132/132/132
f 134/134/134 131/131/131 132/132/132
f 131/131/131 135/135/135 133/133/133
f 135/135/135 136/136/136 133/133/133
f 135/135/135 137/137/137 136/136/136
g mat0model0surf24
# SURFACETYPE MST_PLANAR
# vertex 138
v 65.250000 -100.375000 31.000000
vn 0.948575 -0.102346 0.299550
vt 0.922561 0.277153
# vertex 139
v 63.000000 -28.000000 62.875000
vn 0.948575 -0.102346 0.299550
vt 0.679803 0.845573
# vertex 140
v 79.000000 -30.000000 11.625000
vn 0.948575 -0.102346 0.299550
vt 1.099250 0.829890
# vertex 141
v 67.000000 0.375000 59.875000
vn 0.948575 -0.102346 0.299550
vt 0.711563 1.068416
# vertex 142
v 86.500000 30.625000 8.250000
vn 0.948575 -0.102346 0.299550
vt 1.142038 1.305941
f 138/138/138 140/140/140 139/139/139
f 140/140/140 141/141/141 139/139/139
f 140/140/140 142/142/142 141/141/141
g mat0model0surf25
# SURFACETYPE MST_PLANAR
# vertex 143
v 19.750000 9.875000 76.375000
vn 0.348653 0.495820 0.795364
vt -0.098237 0.765328
# vertex 144
v 16.125000 12.875000 76.125000
vn 0.348653 0.495820 0.795364
vt -0.123391 0.792206
# vertex 145
v 59.625000 4.375000 62.375000
vn 0.348653 0.495820 0.795364
vt 0.230989 0.715668
# vertex 146
v 22.750000 42.000000 55.125000
vn 0.348653 0.495820 0.795364
vt -0.010120 1.054005
f 143/143/143 145/145/145 144/144/144
f 145/145/145 146/146/146 144/144/144
g mat0model0surf26
# SURFACETYPE MST_PLANAR
# vertex 147
v 22.750000 42.000000 55.125000
vn 0.529744 0.629634 0.568271
vt -0.163653 -0.019735
# vertex 148
v 7.750000 73.375000 34.375000
vn 0.529744 0.629634 0.568271
vt -0.138833 0.295668
# vertex 149
v 59.625000 4.375000 62.375000
vn 0.529744 0.629634 0.568271
vt 0.008451 -0.397870
# vertex 150
v 22.500000 91.875000 0.125000
vn 0.529744 0.629634 0.568271
vt 0.127912 0.481714
# vertex 151
v 67.000000 0.375000 59.875000
vn 0.529744 0.629634 0.568271
vt 0.063914 -0.437889
# vertex 152
v 77.375000 50.125000 -4.875000
vn 0.529744 0.629634 0.568271
vt 0.468136 0.062244
# vertex 153
v 86.500000 30.625000 8.250000
vn 0.529744 0.629634 0.568271
vt 0.450363 -0.133942
# vertex 154
v 87.125000 36.250000 1.500000
vn 0.529744 0.629634 0.568271
vt 0.489893 -0.077610
f 149/149/149 151/151/151 150/150/150
f 148/148/148 149/149/149 150/150/150
f 150/150/150 151/151/151 152/152/152
f 151/151/151 153/153/153 152/152/152
f 147/147/147 149/149/149 148/148/148
f 152/152/152 153/153/153 154/154/154
g mat0model0surf27
# SURFACETYPE MST_PLANAR
# vertex 155
v 21.125000 12.875000 -82.625000
vn 0.515824 -0.044977 -0.855513
vt 1.191970 1.129180
# vertex 156
v 11.500000 -22.750000 -86.625000
vn 0.515824 -0.044977 -0.855513
vt 1.272501 0.850599
# vertex 157
v 23.625000 12.625000 -81.125000
vn 0.515824 -0.044977 -0.855513
vt 1.169193 1.127232
# vertex 158
v 66.125000 -81.125000 -50.625000
vn 0.515824 -0.044977 -0.855513
vt 0.761812 0.394084
# vertex 159
v 58.625000 -10.250000 -58.875000
vn 0.515824 -0.044977 -0.855513
vt 0.845271 0.948356
# vertex 160
v 75.875000 -34.000000 -47.125000
vn 0.515824 -0.044977 -0.855513
vt 0.682461 0.762591
f 155/155/155 157/157/157 156/156/156
f 157/157/157 158/158/158 156/156/156
f 157/157/157 159/159/159 158/158/158
f 159/159/159 160/160/160 158/158/158
g mat0model0surf28
# SURFACETYPE MST_PLANAR
# vertex 161
v -15.125000 81.375000 -36.750000
vn 0.435639 0.647714 -0.625048
vt 0.261109 0.375559
# vertex 162
v -35.500000 72.625000 -60.125000
vn 0.435639 0.647714 -0.625048
vt 0.496118 0.285391
# vertex 163
v 22.500000 91.875000 0.125000
vn 0.435639 0.647714 -0.625048
vt -0.144769 0.482276
# vertex 164
v 21.125000 12.875000 -82.625000
vn 0.435639 0.647714 -0.625048
vt 0.233699 -0.327501
# vertex 165
v 77.375000 50.125000 -4.875000
vn 0.435639 0.647714 -0.625048
vt -0.474147 0.054238
# vertex 166
v 23.625000 12.625000 -81.125000
vn 0.435639 0.647714 -0.625048
vt 0.210975 -0.329996
# vertex 167
v 58.000000 28.000000 -41.250000
vn 0.435639 0.647714 -0.625048
vt -0.187474 -0.172403
f 161/161/161 163/163/163 162/162/162
f 163/163/163 164/164/164 162/162/162
f 163/163/163 165/165/165 164/164/164
f 165/165/165 166/166/166 164/164/164
f 165/165/165 167/167/167 166/166/166
g mat0model0surf29
# SURFACETYPE MST_PLANAR
# vertex 168
v 86.500000 30.625000 8.250000
vn 0.991778 -0.125542 -0.024794
vt -0.081322 0.321975
# vertex 169
v 78.750000 -22.125000 -37.750000
vn 0.991778 -0.125542 -0.024794
vt 0.279454 -0.093345
# vertex 170
v 79.000000 -30.000000 11.625000
vn 0.991778 -0.125542 -0.024794
vt -0.106217 -0.155347
# vertex 171
v 87.125000 36.250000 1.500000
vn 0.991778 -0.125542 -0.024794
vt -0.028726 0.366351
f 168/168/168 170/170/170 169/169/169
f 171/171/171 168/168/168 169/169/169
g mat0model0surf30
# SURFACETYPE MST_PLANAR
# vertex 172
v 58.625000 -10.250000 -58.875000
vn 0.650594 0.325608 -0.686081
vt -0.015846 0.712995
# vertex 173
v 58.000000 28.000000 -41.250000
vn 0.650594 0.325608 -0.686081
vt -0.107050 1.029166
# vertex 174
v 23.625000 12.625000 -81.125000
vn 0.650594 0.325608 -0.686081
vt 0.302176 0.902160
f 172/172/172 174/174/174 173/173/173
g mat0model0surf31
# SURFACETYPE MST_PLANAR
# vertex 175
v 78.750000 -22.125000 -37.750000
vn 0.768690 0.277028 -0.576517
vt 0.866797 0.648543
# vertex 176
v 58.625000 -10.250000 -58.875000
vn 0.768690 0.277028 -0.576517
vt 1.093164 0.745098
# vertex 177
v 75.875000 -34.000000 -47.125000
vn 0.768690 0.277028 -0.576517
vt 0.938867 0.552204
# vertex 178
v 87.125000 36.250000 1.500000
vn 0.768690 0.277028 -0.576517
vt 0.582227 1.123217
# vertex 179
v 58.000000 28.000000 -41.250000
vn 0.768690 0.277028 -0.576517
vt 0.985937 1.056200
# vertex 180
v 77.375000 50.125000 -4.875000
vn 0.768690 0.277028 -0.576517
vt 0.667773 1.235976
f 175/175/175 177/177/177 176/176/176
f 178/178/178 175/175/175 176/176/176
f 178/178/178 176/176/176 179/179/179
f 180/180/180 178/178/178 179/179/179
